<?xml version="1.0" encoding="utf-8"?>
<!-- Generator: Adobe Illustrator 27.2.0, SVG Export Plug-In . SVG Version: 6.00 Build 0)  -->
<svg version="1.1" id="_x32_" xmlns="http://www.w3.org/2000/svg" xmlns:xlink="http://www.w3.org/1999/xlink" x="0px" y="0px"
	 viewBox="0 0 800 800" style="enable-background:new 0 0 800 800;" xml:space="preserve">
<path d="M785.5,271.3c10.2-28.6,31.5-88.2-11-146c-24.6-33.4-61-50.4-108.1-50.4c-8.7,0-16.9,0.5-23.4,1l-2.8,0.2
	c-49.7-29.4-117.4-46-188.7-46c-96.9,0-190.3,29.4-263,82.9C47.6,216.6-9,403.4,16.4,524.5c-0.6,1.8-1.4,3.8-2,5.5
	c-10.2,28.6-31.5,88.2,11,146c24.6,33.4,60.9,50.4,108.1,50.4c8.7,0,16.9-0.5,23.4-1l2.9-0.2c50.2,29.8,118.3,46.6,189.8,46.6
	c95.7,0,188.1-29.2,260.2-82.2c142-104.4,199.2-291.6,173.8-412.8C784.2,275,784.9,273,785.5,271.3z M715.3,281.8
	c25.6,95.6-23.8,263.9-145.6,353.5c-66.1,48.6-146.6,69.1-220.1,69.1c-65.6,0-125.7-16.3-165.1-43.4c-4-2.8-9.9-3.5-17-3.5
	c-9.7,0-21.6,1.5-33.9,1.5c-19.3,0-39.6-3.7-53.6-22.8C47,591.3,91,543.3,84.7,519.6C59.1,424,106.7,257,228.5,167.4
	c66.6-49,148.4-69.7,223-69.7c65.3,0,125,15.9,164.1,42.8c4,2.7,9.9,3.5,16.9,3.5c9.7,0,21.6-1.5,34-1.5c19.3,0,39.6,3.7,53.7,22.8
	C753,210.1,708.9,258,715.3,281.8z"/>
<path d="M354.8,513.7c-15.6,0-28.2,12.6-28.2,28.2s12.6,28.2,28.2,28.2c15.6,0,28.2-12.6,28.2-28.2
	C383,526.3,370.4,513.7,354.8,513.7z"/>
<path d="M570,342.5c-15.6,0-28.2,12.6-28.2,28.2c0,15.5,12.6,28.2,28.2,28.2c15.5,0,28.2-12.6,28.2-28.2S585.5,342.5,570,342.5z"/>
<path d="M542.9,245.7c15.5,0,28.2-12.6,28.2-28.2s-12.6-28.2-28.2-28.2c-15.6,0-28.2,12.6-28.2,28.2
	C514.8,233,527.4,245.7,542.9,245.7z"/>
<path d="M211.8,478.8c-15.6,0-28.2,12.6-28.2,28.2s12.6,28.2,28.2,28.2c15.5,0,28.2-12.6,28.2-28.2
	C239.9,491.4,227.3,478.8,211.8,478.8z"/>
<path d="M535,513.7c-15.6,0-28.2,12.6-28.2,28.2c0,15.6,12.6,28.2,28.2,28.2c15.6,0,28.2-12.6,28.2-28.2
	C563.2,526.3,550.6,513.7,535,513.7z"/>
<path d="M381.9,324.5c-15.6,0-28.2,12.6-28.2,28.2s12.6,28.2,28.2,28.2c15.5,0,28.2-12.6,28.2-28.2S397.4,324.5,381.9,324.5z"/>
</svg>
