<?xml version="1.0" encoding="utf-8"?>
<!-- Generator: Adobe Illustrator 27.2.0, SVG Export Plug-In . SVG Version: 6.00 Build 0)  -->
<svg version="1.1" id="Layer_1" xmlns="http://www.w3.org/2000/svg" xmlns:xlink="http://www.w3.org/1999/xlink" x="0px" y="0px"
	 viewBox="0 0 800 800" style="enable-background:new 0 0 800 800;" xml:space="preserve">
<style type="text/css">
	.st0{fill-rule:evenodd;clip-rule:evenodd;fill:#FFFFFF;}
	.st1{fill-rule:evenodd;clip-rule:evenodd;fill:#5DB67D;}
	.st2{fill-rule:evenodd;clip-rule:evenodd;fill:#6F0911;}
	.st3{fill-rule:evenodd;clip-rule:evenodd;fill:#EB166E;}
</style>
<g id="Group_1632" transform="translate(3012.416 -2328.143)">
	<path id="Path_3628" class="st0" d="M-2563.2,2483.2c-18.9,170.4-150.8,185.3-185.4,186.8c5.1-13.2,11.4-25.8,18.9-37.8
		c-110.8,22.3-206.1-73.7-206.1-73.7c29.7-50.3,72.9-91.3,124.7-118.5c-13.1-9.2-24.1-21.1-32.3-34.9
		C-2762.3,2375.1-2643.2,2369.8-2563.2,2483.2"/>
	<path id="Path_3629" class="st1" d="M-2514.1,2532.3c-18.9,170.4-150.8,185.3-185.4,186.8c5.1-13.2,11.4-25.8,18.9-37.8
		c-110.9,22.3-206.1-73.7-206.1-73.7c29.7-50.3,72.9-91.3,124.7-118.5c-13.1-9.2-24.1-21.1-32.3-34.9
		C-2713.3,2424.1-2594.2,2418.8-2514.1,2532.3"/>
	<path id="Path_3630" class="st2" d="M-2729.7,2617c5,0,9.8,2.5,12.6,6.6c3.5,5,3.6,11.7,0.4,16.9c-0.1,0-3.1,4.9-6.7,11.5
		c51.2-9,128.5-42.9,144.3-164.6c-76.1-103-182.1-91-239.7-74.2c5,5.3,10.5,10.1,16.4,14.4c4.5,3.1,7,8.5,6.5,14
		c-0.5,5.5-3.9,10.3-8.9,12.6c-45.1,23.9-83.4,58.9-111.3,101.7c25.2,21.6,100.6,78.1,183.3,61.4
		C-2731.7,2617.1-2730.7,2617-2729.7,2617z M-2748.6,2685.4c-4.8,0-9.4-2.3-12.3-6.1c-3-4.1-3.9-9.3-2.3-14.1
		c1.7-4.9,3.6-9.6,5.9-14.3c-103.8,3.2-185.6-77.7-189.4-81.5c-4.9-4.9-5.9-12.6-2.3-18.6c27.5-46.1,65.5-84.9,111-113.3
		c-7.7-7.4-14.2-16-19.2-25.5c-1.9-3.9-2.1-8.4-0.5-12.4c1.6-4,4.8-7.2,8.9-8.7c44.4-16.5,197.2-59.3,298,83.6
		c2.1,3.1,3.1,6.8,2.7,10.5c-19.8,178.5-158,198.6-200,200.5L-2748.6,2685.4"/>
	<path id="Path_3631" class="st0" d="M-2485.4,3043.2c52.2-56,116-134.2,150.4-212.8c26.2-60.2,9.3-130.5-41.3-172.4
		c-53.1-46.8-120.9-73.6-191.7-75.6c-70.8,2.1-138.6,28.8-191.7,75.6c-50.6,41.9-67.4,112.2-41.3,172.4
		c34.4,78.6,98.3,156.9,150.4,212.8c42.5,45.6,113.8,48.1,159.4,5.7C-2489.1,3047-2487.2,3045.1-2485.4,3043.2"/>
	<path id="Path_3632" class="st3" d="M-2436.4,3092.2c52.2-56,116.1-134.2,150.4-212.8c26.2-60.2,9.3-130.5-41.3-172.4
		c-53.1-46.8-120.9-73.6-191.7-75.7c-70.8,2.1-138.6,28.8-191.7,75.7c-50.6,41.9-67.5,112.2-41.3,172.4
		c34.4,78.6,98.2,156.9,150.4,212.8c42.5,45.6,113.9,48.1,159.4,5.6C-2440.1,3096.1-2438.2,3094.2-2436.4,3092.2"/>
	<path id="Path_3633" class="st0" d="M-2626.8,2589.3c-1.5,10-2.3,20.1-2.4,30.2c0,80.3,32.8,112,61.3,141.6
		c28.5-29.6,61.3-61.3,61.3-141.6c-0.1-10.1-0.9-20.2-2.4-30.2c-19.3-4.6-39.1-6.9-58.9-6.9
		C-2587.7,2582.4-2607.5,2584.7-2626.8,2589.3"/>
	<path id="Path_3634" class="st1" d="M-2583.5,2631.8c-1.5,10-2.3,20.1-2.4,30.2c0,80.3,32.8,112,61.3,141.6
		c28.5-29.6,61.3-61.3,61.3-141.6c-0.1-10.1-0.9-20.2-2.4-30.2c-19.3-4.5-39.1-6.9-58.9-6.9
		C-2544.5,2624.9-2564.2,2627.2-2583.5,2631.8"/>
	<path id="Path_3635" class="st2" d="M-2618.7,2963.6c-10.1,0-18.4-8.2-18.4-18.4v-9.9c0-10.2,8.2-18.4,18.4-18.4h0
		c10.1,0,18.4,8.2,18.4,18.4c0,0,0,0,0,0v9.9C-2600.3,2955.4-2608.5,2963.6-2618.7,2963.6L-2618.7,2963.6"/>
	<path id="Path_3636" class="st2" d="M-2517.3,2963.6c-10.2,0-18.4-8.2-18.4-18.4v-9.9c0-10.2,8.2-18.4,18.4-18.4h0
		c10.2,0,18.4,8.2,18.4,18.4v0v9.9C-2498.9,2955.3-2507.1,2963.6-2517.3,2963.6"/>
	<path id="Path_3637" class="st2" d="M-2669.4,2852.3c-10.2,0-18.4-8.2-18.4-18.4v0v-9.9c0-10.1,8.2-18.4,18.4-18.4c0,0,0,0,0,0
		c10.2,0,18.4,8.2,18.4,18.4v0v9.9C-2651,2844-2659.2,2852.3-2669.4,2852.3L-2669.4,2852.3"/>
	<path id="Path_3638" class="st2" d="M-2568,2852.3c-10.2,0-18.4-8.2-18.4-18.4v0v-9.9c0-10.2,8.2-18.4,18.4-18.4h0
		c10.2,0,18.4,8.2,18.4,18.4v0v9.9C-2549.6,2844-2557.8,2852.3-2568,2852.3L-2568,2852.3"/>
	<path id="Path_3639" class="st2" d="M-2466.6,2852.3c-10.2,0-18.4-8.2-18.4-18.4v0v-9.9c0-10.2,8.2-18.4,18.4-18.4h0
		c10.2,0,18.4,8.2,18.4,18.4c0,0,0,0,0,0v9.9C-2448.2,2844-2456.4,2852.3-2466.6,2852.3"/>
	<path id="Path_3640" class="st0" d="M-2712,2733.8c37.2-17.6,79.1-35.5,107.6-110.6c4.7-12.8,8.3-26,10.6-39.5
		c-50.2,5.9-98.1,24.5-139.1,54C-2734.7,2671.1-2727.5,2704.2-2712,2733.8"/>
	<path id="Path_3641" class="st0" d="M-2423.9,2733.8c15.5-29.6,22.7-62.8,21-96.1c-41-29.5-88.9-48.1-139.1-54
		c2.3,13.4,5.9,26.7,10.6,39.5C-2503,2698.2-2461.1,2716.3-2423.9,2733.8"/>
	<path id="Path_3642" class="st2" d="M-2520.8,2451.1c-2.9,0-5.7-0.8-8.2-2.3c-7.2-4.5-9.3-14-4.8-21.1
		c35.3-56,85.9-86.6,164.1-99.2c8.3-1.4,16.2,4.3,17.6,12.7c1.4,8.3-4.3,16.2-12.6,17.6c0,0,0,0,0,0
		c-69.7,11.3-112.5,36.8-143.1,85.3C-2510.6,2448.4-2515.5,2451.1-2520.8,2451.1"/>
	<path id="Path_3643" class="st1" d="M-2668.7,2776.4c37.1-17.6,79-35.5,107.6-110.6c4.7-12.8,8.2-26,10.6-39.5
		c-50.2,5.9-98,24.5-139.1,54C-2691.4,2713.6-2684.2,2746.8-2668.7,2776.4"/>
	<path id="Path_3644" class="st2" d="M-2677.9,2534.3c-7.2,0-13.5-5.1-15-12.1c-1.8-8.3,3.5-16.4,11.8-18.2
		c5.5-1.2,10.9-2.4,16.2-3.6c8.3-1.8,16.4,3.3,18.3,11.6c1.9,8.2-3.3,16.4-11.5,18.3c0,0,0,0-0.1,0c-5.4,1.2-10.9,2.4-16.5,3.6
		C-2675.7,2534.1-2676.8,2534.2-2677.9,2534.3"/>
	<path id="Path_3645" class="st2" d="M-2608.3,2517.2c-6.8,0-12.8-4.5-14.7-11.1c-2.3-8.1,2.4-16.6,10.5-19
		c13.1-3.6,25.9-8,38.4-13.2c7.8-3.3,16.8,0.2,20.2,8c3.4,7.8-0.2,16.8-8,20.2c0,0,0,0,0,0c-13.7,5.7-27.8,10.6-42.2,14.5
		C-2605.5,2517-2606.9,2517.2-2608.3,2517.2"/>
	<path id="Path_3646" class="st1" d="M-2380.6,2776.4c15.5-29.6,22.7-62.8,21-96.1c-41-29.5-88.9-48.1-139.1-54
		c2.3,13.4,5.9,26.7,10.6,39.5C-2459.6,2740.9-2417.8,2758.9-2380.6,2776.4"/>
	<path id="Path_3647" class="st2" d="M-2718.1,2646.2c-0.4,23.1,4.4,45.9,14,66.9c40.9-17.9,72.1-52.7,85.4-95.3
		c1.8-4.8,3.5-10.1,5.1-15.6C-2651.1,2609.7-2686.6,2624.7-2718.1,2646.2z M-2712,2749.1c-1.9,0-3.7-0.3-5.4-1
		c-3.9-1.5-7-4.5-8.7-8.3l-1.2-2.7c-15.8-31.1-23.1-65.9-21-100.7c0.4-4.6,2.8-8.7,6.5-11.3c43.1-31.1,93.5-50.5,146.3-56.6
		c4.8-0.5,9.5,1.3,12.8,4.8c3.3,3.5,4.7,8.4,3.8,13.1c-2.5,14.4-6.3,28.5-11.3,42.2c-17.8,54.1-59.1,97.4-112.4,117.6l-3,1.4
		C-2707.6,2748.6-2709.8,2749.1-2712,2749.1"/>
	<path id="Path_3648" class="st2" d="M-2522.2,2602.1c1.6,5.6,3.2,10.8,5,15.6c13.3,42.7,44.4,77.4,85.4,95.4
		c9.6-21,14.4-43.9,14-66.9C-2449.3,2624.7-2484.8,2609.7-2522.2,2602.1z M-2423.9,2749.1c-2.3,0-4.5-0.5-6.5-1.5l-3-1.4
		c-53.3-20.3-94.6-63.5-112.4-117.6c-5.1-13.7-8.9-27.8-11.3-42.2c-0.8-4.7,0.6-9.6,3.8-13.1c3.3-3.5,8-5.3,12.8-4.8
		c52.8,6.1,103.1,25.6,146.3,56.6c3.8,2.6,6.2,6.8,6.5,11.3c2.1,34.8-5.2,69.6-21,100.7l-1.2,2.7c-1.6,3.8-4.8,6.8-8.7,8.3
		C-2420.3,2748.8-2422.1,2749.2-2423.9,2749.1"/>
	<path id="Path_3649" class="st2" d="M-2568,2776.3c-4.2,0-8.1-1.7-11-4.7l-2.3-2.4c-27.3-24.6-47-56.6-56.7-92
		c-2.1-8.2,2.9-16.5,11.2-18.6c0,0,0,0,0,0c8.2-2.1,16.5,2.9,18.6,11.1c0,0,0,0.1,0,0.1c6.9,26.3,20.9,50.2,40.3,69.1
		c20.9-20.3,35.3-46.2,41.6-74.6c1.8-8.3,9.9-13.5,18.2-11.7c0,0,0,0,0,0c8.3,1.8,13.5,9.9,11.8,18.2c0,0,0,0,0,0
		c-8.8,38.1-29.1,72.5-58.2,98.5l-2.3,2.4C-2559.8,2774.7-2563.7,2776.4-2568,2776.3"/>
	<path id="Path_3650" class="st2" d="M-2568,2597.7c-67.1,2.3-131.4,27.8-181.9,72.1c-45.2,37.6-60.3,100.4-37,154.4
		c34.2,78.2,99.1,156.6,147.6,208.5c18.4,19.9,44.2,31.2,71.3,31.1c27.1,0.1,53-11.2,71.3-31.1l0,0c48.5-52,113.3-130.3,147.6-208.5
		c23.3-54,8.2-116.9-37-154.4C-2436.6,2625.4-2500.8,2600-2568,2597.7z M-2568,3094.4c-35.5-0.1-69.5-14.8-93.7-40.8
		c-50.1-53.7-117.3-135-153.3-217.1c-28.7-66.5-10.2-144,45.5-190.3c56-48.9,127.2-76.9,201.5-79.2c74.3,2.3,145.5,30.3,201.5,79.2
		c55.7,46.3,74.2,123.8,45.5,190.3c-35.9,82.2-103.2,163.4-153.3,217.1C-2498.5,3079.6-2532.4,3094.4-2568,3094.4"/>
</g>
</svg>
