<?xml version="1.0" encoding="utf-8"?>
<!-- Generator: Adobe Illustrator 27.2.0, SVG Export Plug-In . SVG Version: 6.00 Build 0)  -->
<svg version="1.1" id="Layer_1" xmlns="http://www.w3.org/2000/svg" xmlns:xlink="http://www.w3.org/1999/xlink" x="0px" y="0px"
	 viewBox="0 0 800 800" style="enable-background:new 0 0 800 800;" xml:space="preserve">
<style type="text/css">
	.st0{fill:#713FCC;}
	.st1{fill:#7C45E0;}
	.st2{fill:#884CF6;}
	.st3{fill:#FFFFFF;}
	.st4{fill:#6BE166;}
</style>
<path class="st0" d="M621.6,317.2c0.2,41.2-31.8,85.1-75.2,84.9c-43-0.2-74.4-43.6-74.4-84.3c0-40.6,31.2-84.1,74.4-84.3
	C589.5,233.2,621.3,276.5,621.6,317.2L621.6,317.2z"/>
<path d="M546.7,417.8h-0.4c-24.8-0.1-48-11.7-65.3-32.6c-15.7-18.9-24.7-43.5-24.7-67.4c0-23.9,9-48.4,24.6-67.3
	c17.3-21,40.6-32.6,65.4-32.7c24.8-0.1,48.2,11.3,65.8,32.1c15.8,18.8,25,43.4,25.2,67.2c0.2,27.3-11.4,55.3-31,74.9
	C589.6,408.6,568.5,417.8,546.7,417.8L546.7,417.8z M546.7,249.1h-0.2c-15.4,0.1-30.1,7.6-41.4,21.3c-10.9,13.2-17.4,30.9-17.4,47.4
	s6.5,34.2,17.5,47.4c11.3,13.7,26,21.2,41.3,21.3c17.2,0.1,30-9,37.6-16.6c13.6-13.6,21.9-33.7,21.9-52.5
	c-0.1-16.5-6.7-34.1-17.8-47.3C576.7,256.5,562,249.1,546.7,249.1L546.7,249.1z"/>
<path class="st0" d="M565.2,471.9c0.3,41.2-31.9,85.1-75.2,84.9c-43-0.2-74.4-43.6-74.4-84.3c0-40.6,31.2-84.1,74.4-84.3
	C533.2,387.9,565,431.2,565.2,471.9z"/>
<path d="M490.3,572.4h-0.4c-24.8-0.1-48-11.8-65.3-32.6C409,520.9,400,496.3,400,472.4s9-48.4,24.6-67.3
	c17.3-21,40.6-32.6,65.4-32.7c24.8-0.1,48.2,11.3,65.8,32.1c15.8,18.8,25,43.4,25.2,67.2c0.2,27.3-11.4,55.3-31,74.9
	C533.2,563.3,512.1,572.4,490.3,572.4L490.3,572.4z M490.3,403.7h-0.2c-15.4,0.1-30.1,7.6-41.4,21.3c-10.9,13.2-17.4,30.9-17.4,47.4
	c0,16.4,6.5,34.2,17.5,47.4c11.3,13.7,26,21.2,41.3,21.3c17.2,0.1,30-9,37.6-16.6c13.6-13.6,21.9-33.7,21.9-52.5
	c-0.1-16.5-6.7-34.1-17.8-47.3C520.3,411.2,505.6,403.7,490.3,403.7L490.3,403.7z"/>
<path class="st1" d="M375.9,470.2c0.2,41.2-31.8,85.1-75.2,84.9c-43-0.2-74.4-43.6-74.4-84.4c0-40.6,31.2-84.1,74.4-84.3
	S375.6,429.5,375.9,470.2L375.9,470.2z"/>
<path d="M301,570.8h-0.4c-24.8-0.1-48-11.7-65.3-32.6c-15.7-18.9-24.7-43.5-24.7-67.4s9-48.4,24.6-67.3c17.3-21,40.6-32.6,65.4-32.7
	h0.4c24.7,0,47.9,11.4,65.4,32.1c15.8,18.8,25,43.4,25.1,67.2c0.2,27.3-11.4,55.3-31,74.9C343.9,561.6,322.8,570.8,301,570.8
	L301,570.8z M301,402.1h-0.2c-15.4,0.1-30.1,7.6-41.4,21.3c-10.9,13.2-17.4,30.9-17.4,47.4s6.5,34.2,17.5,47.4
	c11.3,13.7,26,21.2,41.3,21.3c17.2,0.1,30-9,37.6-16.6c13.6-13.6,21.9-33.7,21.9-52.5c-0.1-16.5-6.7-34.1-17.8-47.3
	C331,409.5,316.3,402.1,301,402.1L301,402.1z"/>
<path class="st2" d="M322.4,317.2c4.1,45.8-41.9,92.1-75.2,84.9c-26-5.7-41.4-43.4-40.4-73.2c1.2-33,23.3-75.4,56.7-76.2
	C293.9,252.1,319.7,286.4,322.4,317.2L322.4,317.2z"/>
<path class="st0" d="M322.4,317.2c-2,51.2-68.2,83.5-74.4,77.6c-4.7-4.5,27.6-29.3,33.7-77.3c5.3-41.9-13.4-69.2-6.8-72.6
	C283,240.8,324.1,275.9,322.4,317.2L322.4,317.2z"/>
<path d="M247.6,417.8h-0.4c-24.8-0.1-48-11.7-65.3-32.6c-15.7-18.9-21.9-43.5-21.9-67.4c0,0,0,0,0,0c0-8.7,7-15.7,15.7-15.7
	c8.7,0,12.9,7,12.9,15.7c0,0,0,0,0,0c0,16.5,6.5,34.2,17.5,47.4c11.3,13.7,26,21.2,41.3,21.3c17.2,0.1,30-9,37.6-16.6
	c13.6-13.6,21.9-33.7,21.9-52.5c-0.1-16.5-6.7-34.1-17.8-47.3c-11.4-13.6-26.2-21-41.6-21c-10,0-19.5,3.1-28.2,9.2
	c-2.5,1.7-5.6,2.8-8.9,2.8c-8.7,0-15.7-7-15.7-15.7c0-5.3,2.7-10,6.7-12.9c13-9.2,29-14.7,46.4-14.7c24.4-0.1,47.8,11.3,65.3,32.1
	c15.8,18.8,25,43.4,25.1,67.2c0.2,27.3-11.4,55.3-31,74.9C290.5,408.6,269.3,417.8,247.6,417.8L247.6,417.8z"/>
<path d="M182.8,293.1c-8.6,0-12.9-7-12.9-15.7c0-2.6,0.6-5,1.7-7.1c0.4-0.7,0.8-1.5,1.2-2.3c2.7-5,5.1-8.3,11-8.3
	c8.7,0,15.7,7,15.7,15.7c0,2.7-0.7,5.3-1.9,7.5c-0.3,0.5-0.5,1-0.8,1.6C194.1,289.7,188.8,293.1,182.8,293.1L182.8,293.1z"/>
<path class="st2" d="M488.4,590.4c0.3,50-35.8,103.2-88.4,103c-17.8-0.1-36.7-6.3-50.2-16.3c-13.5-10.1-24.1-23.3-31-38.6
	c9.1,14.7,13.3,21.6,12.6,20.8c-11.7-14.5-19.8-32.3-23.1-51.8c1.4,10.8-1.3-2.7-1.3-16.9c0-48.8,37.9-101.5,90.2-101.8
	C449.5,488.4,488.1,541,488.4,590.4L488.4,590.4z"/>
<path class="st0" d="M472.5,532.1c-1.4,19-41.8,35.9-75.9,31.7s-69.5-30.4-66-49.5c3.3-17.9,40.2-26.9,66.5-25.7
	C433,490.4,474,512.3,472.5,532.1z"/>
<path class="st0" d="M483.6,614.7c-16.7,58.2-83.7,86-90.2,78.6c-5.7-6.4,37.7-33.6,45.5-90c5.8-41.9-13.1-74.3-0.7-81.6
	c8.3-4.9,23.8,5.6,31.8,13.6C497.6,563.2,484.5,611.5,483.6,614.7L483.6,614.7z"/>
<path d="M400.3,709h-0.4c-29-0.1-59-13.8-79.4-38.4c-18.5-22.4-29.2-51.4-29.2-79.6c0-28.2,10.6-57.2,29.1-79.5
	c20.4-24.7,47.6-38.3,76.8-38.5c29.2-0.1,56.6,13.3,77.2,37.8c18.7,22.3,29.6,51.2,29.7,79.4c0.2,32.2-13.5,65.3-36.7,88.4
	C447.8,698.2,425.8,709,400.3,709L400.3,709z M397.5,504.4h-0.3c-19.7,0.1-38.4,9.7-52.7,27.1c-13.7,16.6-21.9,38.9-21.9,59.6
	c0,20.7,8.2,43,21.9,59.6c14.4,17.3,33.1,26.9,52.7,27h0.3c21.9,0,38-11.5,47.6-21.1c17.1-17.1,27.6-42.4,27.5-66.1
	c-0.1-20.7-8.5-42.9-22.4-59.5C435.9,513.8,417.1,504.4,397.5,504.4L397.5,504.4z"/>
<path class="st2" d="M488.4,430.6c6.5,51.8-36.2,103.2-91.2,103c-53.8-0.3-96.7-50-90.2-102.3c5.6-45.9,47.7-81.6,95-79.5
	C446.3,353.7,483.1,388.5,488.4,430.6L488.4,430.6z"/>
<path class="st0" d="M476.6,383c2.7,19.7-35.7,48.3-73,47.6c-43.9-0.8-83.8-42.3-77.6-62c7.1-22.1,72.6-17.1,75.9-16.8
	C422.4,353.4,473.6,361.6,476.6,383L476.6,383z"/>
<path class="st0" d="M481.3,471.8c-16.1,38.6-55.5,62.9-63.5,56.7c-8.4-6.6,26.5-40,27-95.1c0.5-58.4-38.1-95.3-29.3-102.3
	c7.5-5.9,41.2,15.9,59,47.6C477.3,383.8,500.2,426.4,481.3,471.8L481.3,471.8z"/>
<path d="M397.5,549.2h-0.4c-29-0.1-56.3-13.8-76.7-38.4c-18.5-22.4-29.2-51.4-29.2-79.6s10.6-57.2,29.1-79.5
	c20.4-24.7,47.6-38.3,76.8-38.5c29.2-0.1,56.6,13.3,77.2,37.8c18.7,22.3,29.6,51.2,29.7,79.4c0.2,32.2-13.5,65.3-36.7,88.4
	C447.8,538.5,423.1,549.2,397.5,549.2L397.5,549.2z M397.5,344.6h-0.3c-19.7,0.1-38.4,9.7-52.7,27.1c-13.7,16.6-21.9,38.9-21.9,59.6
	c0,20.7,8.2,43,21.9,59.6c14.4,17.3,33.1,26.9,52.7,27h0.3c21.9,0,38-11.5,47.6-21.1c17.1-17.1,27.6-42.4,27.5-66.1
	c-0.1-20.7-8.5-42.9-22.4-59.5C435.9,354,417.1,344.6,397.5,344.6L397.5,344.6z"/>
<path class="st3" d="M472.3,317.2c0.2,41.2-31.8,85.1-75.2,84.9c-43-0.2-74.4-43.6-74.4-84.3c0-40.6,31.2-84.1,74.4-84.3
	C440.2,233.2,472,276.5,472.3,317.2L472.3,317.2z"/>
<path class="st2" d="M472.3,317.2c4.9,45.4-40,91.6-75.2,84.9c-25-4.8-40.7-35.5-43.6-59.6c-4.7-39.1,21.4-87.4,57.5-88.5
	C441.1,253.3,468.8,285.6,472.3,317.2L472.3,317.2z"/>
<path class="st0" d="M472.3,317.2c-0.9,54.5-68.9,90.5-75.2,84.9c-4.9-4.3,29.2-31.7,34.3-82.2c4.6-45.8-18-75.7-11.3-79.4
	C428,236,473,272.4,472.3,317.2L472.3,317.2z"/>
<path d="M397.4,417.8H397c-24.8-0.1-48-11.7-65.3-32.6C316,366.2,307,341.6,307,317.7c0-23.9,9-48.4,24.6-67.3
	c17.3-21,40.6-32.6,65.4-32.7c24.8-0.1,48.2,11.3,65.8,32.1c15.8,18.8,25,43.4,25.1,67.2c0.2,27.3-11.4,55.3-31,74.9
	C440.3,408.6,419.2,417.8,397.4,417.8L397.4,417.8z M397.4,249.1h-0.2c-15.4,0.1-30.1,7.6-41.4,21.3c-10.9,13.2-17.4,30.9-17.4,47.4
	s6.5,34.2,17.5,47.4c11.3,13.7,26,21.2,41.3,21.3c17.2,0.1,30-9,37.6-16.6c13.6-13.6,21.9-33.7,21.9-52.5
	c-0.1-16.5-6.7-34.1-17.8-47.3C427.4,256.5,412.7,249.1,397.4,249.1L397.4,249.1z"/>
<path class="st4" d="M250.5,134.7c4-17,59.9-26.4,102.6-6.4c26.8,12.5,54.4,39.4,48.8,53.3c-6.6,16.4-58.8,13.8-97.4-2.3
	C283.1,170.4,247,149.5,250.5,134.7L250.5,134.7z"/>
<path d="M369.3,208.3c-6.2,0-12.3-0.4-18.3-1.1c-24.2-2.7-47.4-9.9-68.4-20.8c2.1,1.5-12.7-6.7-23.6-14.6
	c-7.1-5.1-28.4-20.7-23.7-40.8c1.4-6,5.9-14.6,19.2-21c23-11.2,67.7-13.5,105.2,4c25.3,12.2,45.9,30.8,60.3,53.7
	c0.2-4,0,10.8-3.6,19.7c-2,4.9-6.5,11.6-17,16C390.5,207.1,379.6,208.3,369.3,208.3L369.3,208.3z M268,138.3
	c2.1,2.4,6.1,6.1,13.7,11.1c20.8,13.8,45.4,23.5,72,27.6c-25.4-4.8-4.9-0.3,16.5,0.1c3.6,0.5,11.8-0.8,15.7-2.1
	c-1.5-2.8-4.6-7.3-10.8-13.1c-14.4-13.5-32.5-23.4-52.6-27.9c9,1.3-10.1-2.2-28.3-1.3C281.2,133.5,272.4,136.2,268,138.3L268,138.3z
	"/>
<path d="M415.3,251.6C415.3,251.6,415.2,251.6,415.3,251.6c-5.6,0-10.5-2.9-13.3-7.3c-6.6-10.5-21.1-38.6-15.3-74.2
	c8-48.8,47.5-72.9,55.3-77.2c2.1-1.1,4.5-1.7,7.1-1.7c8.7,0,15.7,7,15.7,15.7c0,5.7-3,10.7-7.6,13.4c-5.7,3.2-34,20.3-39.6,54.8
	c-4.1,25,6.3,45,10.9,52.5c1.5,2.4,2.4,5.3,2.4,8.3C430.9,244.6,423.9,251.7,415.3,251.6C415.3,251.7,415.3,251.7,415.3,251.6
	L415.3,251.6z"/>
</svg>
